<?xml version="1.0" encoding="utf-8"?>
<!-- Generator: Adobe Illustrator 21.0.2, SVG Export Plug-In . SVG Version: 6.00 Build 0)  -->
<svg version="1.1" id="Layer_1" xmlns="http://www.w3.org/2000/svg" xmlns:xlink="http://www.w3.org/1999/xlink" x="0px" y="0px"
	 viewBox="0 0 1140 622" enable-background="new 0 0 1140 622" xml:space="preserve">
<title>Stars</title>
<desc>Created with Sketch.</desc>
<circle id="Oval-2" fill="#FFFFFF" fill-opacity="0.7" cx="499" cy="2" r="1"/>
<circle id="Oval-2_2_" fill="#FFFFFF" fill-opacity="0.7" cx="-11" cy="311" r="1"/>
<circle id="Oval-2_3_" fill="#FFFFFF" fill-opacity="0.7" cx="39" cy="265" r="1"/>
<circle id="Oval-2_4_" fill="#FFFFFF" fill-opacity="0.7" cx="151" cy="336" r="1"/>
<circle id="Oval-2_5_" fill="#FFFFFF" fill-opacity="0.7" cx="202" cy="283" r="1"/>
<circle id="Oval-2_6_" fill="#FFFFFF" fill-opacity="0.7" cx="151" cy="165" r="1"/>
<circle id="Oval-2_7_" fill="#FFFFFF" fill-opacity="0.7" cx="204" cy="117" r="1"/>
<circle id="Oval-2_8_" fill="#FFFFFF" fill-opacity="0.7" cx="168" cy="73" r="1"/>
<circle id="Oval-2_9_" fill="#FFFFFF" fill-opacity="0.7" cx="258" cy="97" r="1"/>
<circle id="Oval-2_10_" fill="#FFFFFF" fill-opacity="0.7" cx="30" cy="97" r="1"/>
<circle id="Oval-2_11_" fill="#FFFFFF" fill-opacity="0.7" cx="62" cy="108" r="1"/>
<circle id="Oval-2_12_" fill="#FFFFFF" fill-opacity="0.7" cx="59" cy="52" r="1"/>
<circle id="Oval-2_13_" fill="#FFFFFF" fill-opacity="0.7" cx="106" cy="51" r="1"/>
<circle id="Oval-2_14_" fill="#FFFFFF" fill-opacity="0.7" cx="83" cy="10" r="1"/>
<circle id="Oval-2_15_" fill="#FFFFFF" fill-opacity="0.7" cx="152" cy="46" r="1"/>
<circle id="Oval-2_16_" fill="#FFFFFF" fill-opacity="0.7" cx="209" cy="60" r="1"/>
<circle id="Oval-2_17_" fill="#FFFFFF" fill-opacity="0.7" cx="258" cy="34" r="1"/>
<circle id="Oval-2_18_" fill="#FFFFFF" fill-opacity="0.7" cx="598" cy="70" r="1"/>
<circle id="Oval-2_19_" fill="#FFFFFF" fill-opacity="0.7" cx="627" cy="37" r="1"/>
<circle id="Oval-2_20_" fill="#FFFFFF" fill-opacity="0.7" cx="668" cy="79" r="1"/>
<circle id="Oval-2_21_" fill="#FFFFFF" fill-opacity="0.7" cx="728" cy="71" r="1"/>
<circle id="Oval-2_22_" fill="#FFFFFF" fill-opacity="0.7" cx="700" cy="41" r="1"/>
<circle id="Oval-2_23_" fill="#FFFFFF" fill-opacity="0.7" cx="922" cy="66" r="1"/>
<circle id="Oval-2_24_" fill="#FFFFFF" fill-opacity="0.7" cx="1045" cy="64" r="1"/>
<circle id="Oval-2_25_" fill="#FFFFFF" fill-opacity="0.7" cx="1059" cy="37" r="1"/>
<circle id="Oval-2_26_" fill="#FFFFFF" fill-opacity="0.7" cx="1129" cy="7" r="1"/>
<circle id="Oval-2_27_" fill="#FFFFFF" fill-opacity="0.7" cx="1109" cy="48" r="1"/>
<circle id="Oval-2_28_" fill="#FFFFFF" fill-opacity="0.7" cx="920" cy="209" r="1"/>
<circle id="Oval-2_29_" fill="#FFFFFF" fill-opacity="0.7" cx="811" cy="218" r="1"/>
<circle id="Oval-2_30_" fill="#FFFFFF" fill-opacity="0.7" cx="1131" cy="90" r="1"/>
<circle id="Oval-2_31_" fill="#FFFFFF" fill-opacity="0.7" cx="940" cy="89" r="1"/>
<circle id="Oval-2_32_" fill="#FFFFFF" fill-opacity="0.7" cx="891" cy="160" r="1"/>
<circle id="Oval-2_33_" fill="#FFFFFF" fill-opacity="0.7" cx="1105" cy="161" r="1"/>
<circle id="Oval-2_34_" fill="#FFFFFF" fill-opacity="0.7" cx="1024" cy="130" r="1"/>
<circle id="Oval-2_35_" fill="#FFFFFF" fill-opacity="0.7" cx="791" cy="284" r="1"/>
<circle id="Oval-2_36_" fill="#FFFFFF" fill-opacity="0.7" cx="288" cy="256" r="1"/>
<circle id="Oval-2_37_" fill="#FFFFFF" fill-opacity="0.7" cx="240" cy="221" r="1"/>
<circle id="Oval-2_38_" fill="#FFFFFF" fill-opacity="0.7" cx="193" cy="256" r="1"/>
<circle id="Oval-2_39_" fill="#FFFFFF" fill-opacity="0.7" cx="114" cy="271" r="1"/>
<circle id="Oval-2_40_" fill="#FFFFFF" fill-opacity="0.7" cx="98" cy="326" r="1"/>
<circle id="Oval-2_42_" fill="#FFFFFF" fill-opacity="0.7" cx="131" cy="406" r="1"/>
<circle id="Oval-2_43_" fill="#FFFFFF" fill-opacity="0.7" cx="28" cy="376" r="1"/>
<circle id="Oval-2_44_" fill="#FFFFFF" fill-opacity="0.7" cx="1" cy="221" r="1"/>
<circle id="Oval-2_46_" fill="#FFFFFF" fill-opacity="0.7" cx="73" cy="185" r="1"/>
<circle id="Oval-2_47_" fill="#FFFFFF" fill-opacity="0.7" cx="35" cy="141" r="1"/>
<circle id="Oval-2_53_" fill="#FFFFFF" fill-opacity="0.7" cx="461" cy="76" r="1"/>
<circle id="Oval-2_54_" fill="#FFFFFF" fill-opacity="0.7" cx="404" cy="90" r="1"/>
<circle id="Oval-2_55_" fill="#FFFFFF" fill-opacity="0.7" cx="355" cy="64" r="1"/>
<circle id="Oval-2_60_" fill="#FFFFFF" fill-opacity="0.7" cx="778" cy="151" r="1"/>
<circle id="Oval-2_61_" fill="#FFFFFF" fill-opacity="0.7" cx="750" cy="121" r="1"/>
<circle id="Oval-2_64_" fill="#FFFFFF" fill-opacity="0.7" cx="782" cy="26" r="1"/>
<circle id="Oval-2_65_" fill="#FFFFFF" fill-opacity="0.7" cx="870" cy="39" r="1"/>
<circle id="Oval-2_68_" fill="#FFFFFF" fill-opacity="0.7" cx="1151" cy="180" r="1"/>
<circle id="Oval-2_69_" fill="#FFFFFF" fill-opacity="0.7" cx="1125" cy="251" r="1"/>
<circle id="Oval-2_70_" fill="#FFFFFF" fill-opacity="0.7" cx="1044" cy="220" r="1"/>
<circle id="Oval-2_78_" fill="#FFFFFF" fill-opacity="0.7" cx="400" cy="336" r="1"/>
<circle id="Oval-2_79_" fill="#FFFFFF" fill-opacity="0.7" cx="350" cy="382" r="1"/>
<circle id="Oval-2_80_" fill="#FFFFFF" fill-opacity="0.7" cx="238" cy="311" r="1"/>
<circle id="Oval-2_81_" fill="#FFFFFF" fill-opacity="0.7" cx="187" cy="364" r="1"/>
<circle id="Oval-2_82_" fill="#FFFFFF" fill-opacity="0.7" cx="149" cy="426" r="1"/>
<circle id="Oval-2_83_" fill="#FFFFFF" fill-opacity="0.7" cx="129" cy="366" r="1"/>
<circle id="Oval-2_84_" fill="#FFFFFF" fill-opacity="0.7" cx="196" cy="391" r="1"/>
<circle id="Oval-2_85_" fill="#FFFFFF" fill-opacity="0.7" cx="275" cy="376" r="1"/>
<circle id="Oval-2_86_" fill="#FFFFFF" fill-opacity="0.7" cx="291" cy="321" r="1"/>
<circle id="Oval-2_87_" fill="#FFFFFF" fill-opacity="0.7" cx="388" cy="426" r="1"/>
<circle id="Oval-2_92_" fill="#FFFFFF" fill-opacity="0.7" cx="297" cy="438" r="1"/>
<circle id="Oval-2_93_" fill="#FFFFFF" fill-opacity="0.7" cx="246" cy="491" r="1"/>
<circle id="Oval-2_94_" fill="#FFFFFF" fill-opacity="0.7" cx="255" cy="518" r="1"/>
<circle id="Oval-2_95_" fill="#FFFFFF" fill-opacity="0.7" cx="334" cy="503" r="1"/>
<circle id="Oval-2_96_" fill="#FFFFFF" fill-opacity="0.7" cx="350" cy="448" r="1"/>
<circle id="Oval-2_100_" fill="#FFFFFF" fill-opacity="0.7" cx="-1" cy="506" r="1"/>
<circle id="Oval-2_101_" fill="#FFFFFF" fill-opacity="0.7" cx="49" cy="552" r="1"/>
<circle id="Oval-2_102_" fill="#FFFFFF" fill-opacity="0.7" cx="161" cy="481" r="1"/>
<circle id="Oval-2_103_" fill="#FFFFFF" fill-opacity="0.7" cx="212" cy="534" r="1"/>
<circle id="Oval-2_104_" fill="#FFFFFF" fill-opacity="0.7" cx="250" cy="596" r="1"/>
<circle id="Oval-2_105_" fill="#FFFFFF" fill-opacity="0.7" cx="203" cy="561" r="1"/>
<circle id="Oval-2_106_" fill="#FFFFFF" fill-opacity="0.7" cx="124" cy="546" r="1"/>
<circle id="Oval-2_107_" fill="#FFFFFF" fill-opacity="0.7" cx="108" cy="491" r="1"/>
<circle id="Oval-2_108_" fill="#FFFFFF" fill-opacity="0.7" cx="18" cy="449" r="1"/>
<circle id="Oval-2_109_" fill="#FFFFFF" fill-opacity="0.7" cx="11" cy="596" r="1"/>
<circle id="Oval-2_113_" fill="#FFFFFF" fill-opacity="0.7" cx="321" cy="196" r="1"/>
<circle id="Oval-2_114_" fill="#FFFFFF" fill-opacity="0.7" cx="372" cy="143" r="1"/>
<circle id="Oval-2_115_" fill="#FFFFFF" fill-opacity="0.7" cx="284" cy="131" r="1"/>
<circle id="Oval-2_116_" fill="#FFFFFF" fill-opacity="0.7" cx="268" cy="186" r="1"/>
<circle id="Oval-2_121_" fill="#FFFFFF" fill-opacity="0.7" cx="502" cy="525" r="1"/>
<circle id="Oval-2_122_" fill="#FFFFFF" fill-opacity="0.7" cx="488" cy="498" r="1"/>
<circle id="Oval-2_123_" fill="#FFFFFF" fill-opacity="0.7" cx="418" cy="468" r="1"/>
<circle id="Oval-2_124_" fill="#FFFFFF" fill-opacity="0.7" cx="438" cy="509" r="1"/>
<circle id="Oval-2_125_" fill="#FFFFFF" fill-opacity="0.7" cx="416" cy="551" r="1"/>
<circle id="Oval-2_126_" fill="#FFFFFF" fill-opacity="0.7" cx="442" cy="622" r="1"/>
<circle id="Oval-2_130_" fill="#FFFFFF" fill-opacity="0.7" cx="872" cy="360" r="1"/>
<circle id="Oval-2_131_" fill="#FFFFFF" fill-opacity="0.7" cx="995" cy="362" r="1"/>
<circle id="Oval-2_132_" fill="#FFFFFF" fill-opacity="0.7" cx="1009" cy="389" r="1"/>
<circle id="Oval-2_133_" fill="#FFFFFF" fill-opacity="0.7" cx="1059" cy="378" r="1"/>
<circle id="Oval-2_134_" fill="#FFFFFF" fill-opacity="0.7" cx="955" cy="412" r="1"/>
<circle id="Oval-2_135_" fill="#FFFFFF" fill-opacity="0.7" cx="969" cy="439" r="1"/>
<circle id="Oval-2_136_" fill="#FFFFFF" fill-opacity="0.7" cx="1019" cy="428" r="1"/>
<circle id="Oval-2_137_" fill="#FFFFFF" fill-opacity="0.7" cx="925" cy="542" r="1"/>
<circle id="Oval-2_138_" fill="#FFFFFF" fill-opacity="0.7" cx="939" cy="569" r="1"/>
<circle id="Oval-2_139_" fill="#FFFFFF" fill-opacity="0.7" cx="989" cy="558" r="1"/>
<circle id="Oval-2_140_" fill="#FFFFFF" fill-opacity="0.7" cx="870" cy="217" r="1"/>
<circle id="Oval-2_141_" fill="#FFFFFF" fill-opacity="0.7" cx="1081" cy="336" r="1"/>
<circle id="Oval-2_142_" fill="#FFFFFF" fill-opacity="0.7" cx="1131" cy="420" r="1"/>
<circle id="Oval-2_143_" fill="#FFFFFF" fill-opacity="0.7" cx="1143" cy="358" r="1"/>
<circle id="Oval-2_144_" fill="#FFFFFF" fill-opacity="0.7" cx="890" cy="337" r="1"/>
<circle id="Oval-2_145_" fill="#FFFFFF" fill-opacity="0.7" cx="841" cy="266" r="1"/>
<circle id="Oval-2_146_" fill="#FFFFFF" fill-opacity="0.7" cx="1055" cy="265" r="1"/>
<circle id="Oval-2_147_" fill="#FFFFFF" fill-opacity="0.7" cx="974" cy="296" r="1"/>
<circle id="Oval-2_153_" fill="#FFFFFF" fill-opacity="0.7" cx="815" cy="452" r="1"/>
<circle id="Oval-2_154_" fill="#FFFFFF" fill-opacity="0.7" cx="829" cy="479" r="1"/>
<circle id="Oval-2_155_" fill="#FFFFFF" fill-opacity="0.7" cx="635" cy="532" r="1"/>
<circle id="Oval-2_156_" fill="#FFFFFF" fill-opacity="0.7" cx="649" cy="559" r="1"/>
<circle id="Oval-2_157_" fill="#FFFFFF" fill-opacity="0.7" cx="879" cy="468" r="1"/>
<circle id="Oval-2_158_" fill="#FFFFFF" fill-opacity="0.7" cx="901" cy="426" r="1"/>
<circle id="Oval-2_159_" fill="#FFFFFF" fill-opacity="0.7" cx="849" cy="548" r="1"/>
<circle id="Oval-2_160_" fill="#FFFFFF" fill-opacity="0.7" cx="709" cy="507" r="1"/>
<circle id="Oval-2_161_" fill="#FFFFFF" fill-opacity="0.7" cx="871" cy="506" r="1"/>
<circle id="Oval-2_164_" fill="#FFFFFF" fill-opacity="0.7" cx="1015" cy="492" r="1"/>
<circle id="Oval-2_165_" fill="#FFFFFF" fill-opacity="0.7" cx="1029" cy="519" r="1"/>
<circle id="Oval-2_166_" fill="#FFFFFF" fill-opacity="0.7" cx="1039" cy="478" r="1"/>
<circle id="Oval-2_167_" fill="#FFFFFF" fill-opacity="0.7" cx="1061" cy="436" r="1"/>
<circle id="Oval-2_150_" fill="#FFFFFF" fill-opacity="0.7" cx="412" cy="283" r="1"/>
<circle id="Oval-2_148_" fill="#FFFFFF" fill-opacity="0.7" cx="414" cy="117" r="1"/>
<circle id="Oval-2_128_" fill="#FFFFFF" fill-opacity="0.7" cx="468" cy="97" r="1"/>
<circle id="Oval-2_120_" fill="#FFFFFF" fill-opacity="0.7" cx="498" cy="256" r="1"/>
<circle id="Oval-2_118_" fill="#FFFFFF" fill-opacity="0.7" cx="450" cy="221" r="1"/>
<circle id="Oval-2_112_" fill="#FFFFFF" fill-opacity="0.7" cx="403" cy="256" r="1"/>
<circle id="Oval-2_110_" fill="#FFFFFF" fill-opacity="0.7" cx="614" cy="90" r="1"/>
<circle id="Oval-2_98_" fill="#FFFFFF" fill-opacity="0.7" cx="610" cy="336" r="1"/>
<circle id="Oval-2_91_" fill="#FFFFFF" fill-opacity="0.7" cx="560" cy="382" r="1"/>
<circle id="Oval-2_89_" fill="#FFFFFF" fill-opacity="0.7" cx="448" cy="311" r="1"/>
<circle id="Oval-2_77_" fill="#FFFFFF" fill-opacity="0.7" cx="397" cy="364" r="1"/>
<circle id="Oval-2_75_" fill="#FFFFFF" fill-opacity="0.7" cx="406" cy="391" r="1"/>
<circle id="Oval-2_73_" fill="#FFFFFF" fill-opacity="0.7" cx="485" cy="376" r="1"/>
<circle id="Oval-2_71_" fill="#FFFFFF" fill-opacity="0.7" cx="501" cy="321" r="1"/>
<circle id="Oval-2_66_" fill="#FFFFFF" fill-opacity="0.7" cx="598" cy="426" r="1"/>
<circle id="Oval-2_62_" fill="#FFFFFF" fill-opacity="0.7" cx="507" cy="438" r="1"/>
<circle id="Oval-2_58_" fill="#FFFFFF" fill-opacity="0.7" cx="560" cy="448" r="1"/>
<circle id="Oval-2_56_" fill="#FFFFFF" fill-opacity="0.7" cx="531" cy="196" r="1"/>
<circle id="Oval-2_51_" fill="#FFFFFF" fill-opacity="0.7" cx="582" cy="143" r="1"/>
<circle id="Oval-2_49_" fill="#FFFFFF" fill-opacity="0.7" cx="494" cy="131" r="1"/>
<circle id="Oval-2_45_" fill="#FFFFFF" fill-opacity="0.7" cx="478" cy="186" r="1"/>
<circle id="Oval-2_1_" fill="#FFFFFF" fill-opacity="0.7" cx="628" cy="468" r="1"/>
<circle id="Oval-2_169_" fill="#FFFFFF" fill-opacity="0.7" cx="720" cy="386" r="1"/>
<circle id="Oval-2_163_" fill="#FFFFFF" fill-opacity="0.7" cx="670" cy="432" r="1"/>
<circle id="Oval-2_152_" fill="#FFFFFF" fill-opacity="0.7" cx="611" cy="371" r="1"/>
<ellipse id="Oval-2_300_" transform="matrix(0.2162 -0.9763 0.9763 0.2162 265.0376 847.6638)" fill="#FFFFFF" fill-opacity="0.7" cx="660.5" cy="258.8" rx="1" ry="1"/>
<ellipse id="Oval-2_298_" transform="matrix(0.2162 -0.9763 0.9763 0.2162 295.6664 768.2755)" fill="#FFFFFF" fill-opacity="0.7" cx="626.3" cy="200" rx="1" ry="1"/>
<ellipse id="Oval-2_296_" transform="matrix(0.2162 -0.9763 0.9763 0.2162 383.125 733.5308)" fill="#FFFFFF" fill-opacity="0.7" cx="648.4" cy="128.1" rx="1" ry="1"/>
<ellipse id="Oval-2_173_" transform="matrix(0.2162 -0.9763 0.9763 0.2162 395.6953 804.0951)" fill="#FFFFFF" fill-opacity="0.7" cx="698.7" cy="155.6" rx="1" ry="1"/>
<ellipse id="Oval-2_171_" transform="matrix(0.2162 -0.9763 0.9763 0.2162 244.5049 808.9203)" fill="#FFFFFF" fill-opacity="0.7" cx="626.1" cy="252.2" rx="1" ry="1"/>
<circle id="Oval-2_304_" fill="#FFFFFF" fill-opacity="0.7" cx="768" cy="418" r="1"/>
<circle id="Oval-2_172_" fill="#FFFFFF" fill-opacity="0.7" cx="810" cy="382" r="1"/>
<ellipse id="Oval-2_310_" transform="matrix(0.2197 -0.9756 0.9756 0.2197 236.6572 966.1268)" fill="#FFFFFF" fill-opacity="0.7" cx="722.3" cy="335.1" rx="1" ry="1"/>
<ellipse id="Oval-2_308_" transform="matrix(0.2197 -0.9756 0.9756 0.2197 267.6915 887.2148)" fill="#FFFFFF" fill-opacity="0.7" cx="688.5" cy="276.3" rx="1" ry="1"/>
<ellipse id="Oval-2_306_" transform="matrix(0.2197 -0.9756 0.9756 0.2197 216.359 927.3986)" fill="#FFFFFF" fill-opacity="0.7" cx="687.9" cy="328.4" rx="1" ry="1"/>
<ellipse id="Oval-2_316_" transform="matrix(0.8431 -0.5377 0.5377 0.8431 -54.5853 332.0545)" fill="#FFFFFF" fill-opacity="0.7" cx="541.8" cy="259.6" rx="1" ry="1"/>
<ellipse id="Oval-2_314_" transform="matrix(0.8431 -0.5377 0.5377 0.8431 -53.6307 370.0996)" fill="#FFFFFF" fill-opacity="0.7" cx="607.5" cy="277" rx="1" ry="1"/>
<ellipse id="Oval-2_307_" transform="matrix(0.8431 -0.5377 0.5377 0.8431 -39.4424 344.5428)" fill="#FFFFFF" fill-opacity="0.7" cx="570.8" cy="239.9" rx="1" ry="1"/>
</svg>
